<svg cache-id="d64a0913a16a4f6a8e4757bbc7af6cdb" id="eCHk0QPMUz21" xmlns="http://www.w3.org/2000/svg" xmlns:xlink="http://www.w3.org/1999/xlink" viewBox="0 0 372 103" shape-rendering="geometricPrecision" text-rendering="geometricPrecision"><g clip-path="url(#eCHk0QPMUz230)"><g><g mask="url(#eCHk0QPMUz27)"><g><path d="M0.288696,0.282043h372.034304v102.335957h-372.034304v-102.335957Z" fill="none" stroke="#500778" stroke-width="5.99788"/></g><mask id="eCHk0QPMUz27" mask-type="luminance" x="-150%" y="-150%" height="400%" width="400%"><path d="M0.288696,0.282043h372.034304v102.335957h-372.034304v-102.335957Z" transform="translate(0 0.000001)" fill="#fff"/></mask></g><g mask="url(#eCHk0QPMUz212)"><g><path d="M10.338,9.90936h176.923v84.03634h-176.923v-84.03634Z" fill="#500778"/></g><mask id="eCHk0QPMUz212" mask-type="luminance" x="-150%" y="-150%" height="400%" width="400%"><path d="M10.338,9.90936h175.923v83.18134h-175.923v-83.18134Z" fill="#fff"/></mask></g><path d="M40.8438,41.821c1.5546,0,2.9982.3776,4.3307,1.1327s2.3818,1.8099,3.1535,3.1536c.7829,1.3325,1.1771,2.7649,1.1771,4.2862c0,1.5434-.3998,2.987-1.1993,4.3306-.7884,1.3491-1.8544,2.3929-3.198,3.1314-1.3325.7439-2.7705,1.1104-4.3084,1.1104h-6.3072v-17.1449h6.3516ZM38.9339,55.1905h.6663c.9771,0,1.7544-.1,2.3318-.311c1.9655-.6773,2.9537-2.1764,2.9537-4.486c0-1.4935-.4552-2.665-1.3547-3.509-.8883-.855-2.0542-1.288-3.4867-1.288h-1.1104v9.594Z" fill="#fff"/><path d="M57.7597,41.821v17.1449h-4.4417v-17.1449h4.4417Z" fill="#fff"/><path d="M68.2091,41.3547c1.8488,0,3.6422.4775,5.3744,1.4214l-1.7766,3.4645c-.9217-.7662-1.9044-1.1549-2.9538-1.1549-.4885,0-.9327.1333-1.3325.3998-.3886.2665-.5774.6163-.5774,1.0438c0,.3886.1777.7106.533.9771.3665.2665.9772.5275,1.8211.7773c1.4047.3554,2.4318.7718,3.087,1.2437.6662.4608,1.1437.9772,1.4435,1.5546.3109.5774.4664,1.2825.4664,2.1098c0,2.1931-.6607,3.7754-1.9766,4.7526-1.3047.9771-2.8648,1.4657-4.6859,1.4657-2.1487,0-4.1474-.6496-5.9963-1.9543l1.91-3.5756c1.3436,1.1715,2.6538,1.7545,3.9308,1.7545.633,0,1.1549-.1444,1.5546-.4442.4109-.3109.6218-.7328.6218-1.2658c0-.7829-.6218-1.3548-1.8655-1.7101-1.9987-.5607-3.2646-1.0216-3.7976-1.3769-.533-.3664-.9494-.8439-1.2436-1.4213-.2999-.5886-.4442-1.3603-.4442-2.3097c0-1.6989.5441-3.087,1.6434-4.153c1.1104-1.066,2.5318-1.599,4.264-1.599Z" fill="#fff"/><path d="M90.3832,47.5731c-.4331-.6052-.9938-1.0716-1.6878-1.3992-.6996-.322-1.438-.4885-2.2209-.4885-1.3214,0-2.4096.4552-3.2646,1.3547-.8606.8883-1.2881,2.0209-1.2881,3.3978c0,1.3659.422,2.4818,1.2659,3.3535.855.8772,1.9765,1.3103,3.3534,1.3103.7385,0,1.4436-.1555,2.1098-.4664.6774-.322,1.2548-.7773,1.7323-1.3547v5.3522c-.7884.2388-1.488.422-2.1098.5552-.6218.1444-1.2326.2221-1.8211.2221-2.3874,0-4.5083-.8272-6.3738-2.4873-1.8655-1.6545-2.7982-3.8254-2.7982-6.5071c0-1.6545.4053-3.1813,1.2214-4.5749.8106-1.388,1.9211-2.4873,3.3313-3.2868c1.4213-.7995,2.9148-1.1993,4.4861-1.1993c1.2714,0,2.6261.2887,4.0641.8662v5.3522Z" fill="#fff"/><path d="M112.98,50.0826c0,1.8099-.416,3.4367-1.243,4.8858-.817,1.4546-1.955,2.5762-3.421,3.3757-1.454.7995-3.014,1.1992-4.686,1.1992-1.865,0-3.542-.4108-5.0186-1.2214-1.4657-.8106-2.5984-1.9322-3.3979-3.3535s-1.1992-2.9815-1.1992-4.686c0-1.5656.3609-3.0258,1.0882-4.375.7384-1.3436,1.8655-2.454,3.3757-3.3312c1.5212-.8884,3.1978-1.3325,5.0188-1.3325c1.655,0,3.22.3886,4.686,1.1548c1.466.7717,2.626,1.8377,3.487,3.198.872,1.3491,1.31,2.8427,1.31,4.4861Zm-9.483,5.1301c1.377,0,2.521-.4941,3.443-1.488.932-1.0049,1.399-2.2097,1.399-3.6199c0-1.1826-.483-2.232-1.444-3.1536-.949-.9161-2.087-1.3769-3.42-1.3769-1.26,0-2.371.4441-3.331,1.3325-.9663.8883-1.4604,1.9543-1.4882,3.198c0,1.4657.4664,2.6872,1.3992,3.6644.933.966,2.076,1.4435,3.442,1.4435Z" fill="#fff"/><path d="M119.818,41.821l4.131,10.4158l4.175-10.4158h4.841l-7.328,17.1449h-3.465L114.977,41.821h4.841Z" fill="#fff"/><path d="M145.555,41.821v3.7755h-5.308v2.8648h5.042v3.7755h-5.042v2.9537h5.308v3.7754h-9.749v-17.1449h9.749Z" fill="#fff"/><path d="M156.768,41.821c1.788,0,3.22.4609,4.286,1.377c1.066.9216,1.599,2.2152,1.599,3.8864c0,1.2603-.333,2.3263-.999,3.198-.666.8772-1.588,1.4325-2.754,1.6656l5.397,7.0179h-5.553L154.525,52.37h-.045v6.5959h-4.441v-17.1449h6.729Zm-2.288,7.6841h.4c1.077,0,1.871-.1665,2.377-.5108.499-.3553.755-.8938.755-1.6212c0-.7217-.256-1.2547-.755-1.599-.489-.3553-1.283-.533-2.377-.533h-.4v4.264Z" fill="#fff"/><path d="M215.191,42.7633v6.6625h6.463v-6.6625h4.486v17.2559h-4.486v-7.0623h-6.463v7.0623h-4.486v-17.2559h4.486Z" fill="#500778"/><path d="M247.267,51.0692c0,1.8377-.417,3.4867-1.244,4.9525-.816,1.4546-1.954,2.5761-3.42,3.3756s-3.054,1.1993-4.753,1.1993c-1.865,0-3.542-.4109-5.019-1.2215-1.482-.8106-2.632-1.9377-3.442-3.3757-.8-1.4324-1.199-3.0036-1.199-4.7081c0-1.5824.366-3.0481,1.11-4.3973.738-1.3602,1.871-2.4762,3.398-3.3534c1.521-.8884,3.198-1.3325,5.019-1.3325c1.688,0,3.265.3886,4.73,1.1548c1.466.7717,2.632,1.8377,3.509,3.198.872,1.3658,1.311,2.8649,1.311,4.5083Zm-9.55,5.1745c1.388,0,2.554-.4997,3.487-1.5101.932-1.005,1.399-2.2209,1.399-3.6422c0-1.1826-.483-2.2319-1.444-3.1536-.966-.9327-2.121-1.3991-3.464-1.3991-1.261,0-2.377.4553-3.354,1.3547-.966.8883-1.46,1.9543-1.488,3.198c0,1.4824.472,2.7094,1.422,3.6866.944.9772,2.093,1.4657,3.442,1.4657Z" fill="#500778"/><path d="M253.812,42.7633v13.4583h5.374v3.7976h-9.86v-17.2559h4.486Z" fill="#500778"/><path d="M264.102,42.7633l3.242,4.7082l3.221-4.7082h5.374l-6.351,8.9722v8.2837h-4.487v-8.2837l-6.373-8.9722h5.374Z" fill="#500778"/><path d="M283.728,42.7633c1.804,0,3.242.4664,4.308,1.3991c1.077.9217,1.621,2.2209,1.621,3.9087c0,1.277-.344,2.3485-1.021,3.2202-.667.8772-1.588,1.4324-2.754,1.6656l5.419,7.0623h-5.597l-4.219-6.6403h-.045v6.6403h-4.486v-17.2559h6.774ZM281.44,50.514h.378c1.093,0,1.893-.1777,2.398-.533.5-.3553.755-.8939.755-1.6212c0-.7384-.255-1.277-.755-1.6212-.488-.3553-1.288-.533-2.398-.533h-.378v4.3084Z" fill="#500778"/><path d="M310.704,51.0692c0,1.8377-.416,3.4867-1.243,4.9525-.816,1.4546-1.955,2.5761-3.42,3.3756-1.466.7995-3.054,1.1993-4.753,1.1993-1.865,0-3.542-.4109-5.019-1.2215-1.482-.8106-2.632-1.9377-3.442-3.3757-.8-1.4324-1.199-3.0036-1.199-4.7081c0-1.5824.366-3.0481,1.11-4.3973.738-1.3602,1.871-2.4762,3.398-3.3534c1.521-.8884,3.198-1.3325,5.019-1.3325c1.688,0,3.265.3886,4.73,1.1548c1.466.7717,2.632,1.8377,3.509,3.198.872,1.3658,1.31,2.8649,1.31,4.5083Zm-9.549,5.1745c1.388,0,2.554-.4997,3.487-1.5101.932-1.005,1.399-2.2209,1.399-3.6422c0-1.1826-.483-2.2319-1.444-3.1536-.966-.9327-2.121-1.3991-3.464-1.3991-1.261,0-2.377.4553-3.354,1.3547-.966.8883-1.46,1.9543-1.488,3.198c0,1.4824.472,2.7094,1.422,3.6866.943.9772,2.093,1.4657,3.442,1.4657Z" fill="#500778"/><path d="M330.974,51.0692c0,1.8377-.416,3.4867-1.243,4.9525-.816,1.4546-1.955,2.5761-3.42,3.3756-1.466.7995-3.054,1.1993-4.753,1.1993-1.865,0-3.542-.4109-5.019-1.2215-1.482-.8106-2.632-1.9377-3.442-3.3757-.8-1.4324-1.2-3.0036-1.2-4.7081c0-1.5824.367-3.0481,1.111-4.3973.738-1.3602,1.871-2.4762,3.398-3.3534c1.521-.8884,3.198-1.3325,5.019-1.3325c1.688,0,3.264.3886,4.73,1.1548c1.466.7717,2.632,1.8377,3.509,3.198.872,1.3658,1.31,2.8649,1.31,4.5083Zm-9.549,5.1745c1.388,0,2.554-.4997,3.487-1.5101.932-1.005,1.399-2.2209,1.399-3.6422c0-1.1826-.483-2.2319-1.444-3.1536-.966-.9327-2.121-1.3991-3.464-1.3991-1.261,0-2.377.4553-3.354,1.3547-.966.8883-1.46,1.9543-1.488,3.198c0,1.4824.472,2.7094,1.422,3.6866.943.9772,2.093,1.4657,3.442,1.4657Z" fill="#500778"/><path d="M339.43,42.7633c1.554,0,3.003.3887,4.352,1.1548c1.344.7551,2.41,1.81,3.198,3.1536.783,1.3492,1.177,2.7927,1.177,4.3306c0,1.5546-.399,3.0093-1.199,4.3529-.799,1.3491-1.882,2.3985-3.242,3.1536-1.349.7439-2.793,1.1104-4.331,1.1104h-6.351v-17.2559h6.396Zm-1.91,13.4583h.666c.988,0,1.777-.1,2.354-.311c1.965-.694,2.954-2.1986,2.954-4.5083c0-1.5101-.456-2.6927-1.355-3.5533-.905-.855-2.076-1.2881-3.509-1.2881h-1.11v9.6607Z" fill="#500778"/></g><clipPath id="eCHk0QPMUz230"><rect width="372" height="103" rx="0" ry="0" fill="#fff"/></clipPath></g></svg>
